{"title":"Bunraku 2010 VODRip XviD Feel-Free","uid":6663803,"size":1319471242,"categoryP":"video","categoryS":"movies","magnet":"?xt=urn:btih:60ad756189dbb28e44e824da135837b3b70e6ae5&amp;dn=Bunraku+2010+VODRip+XviD+Feel-Free&amp;tr=udp%3A%2F%2Ftracker.openbittorrent.com%3A80&amp;tr=udp%3A%2F%2Fopen.demonii.com%3A1337&amp;tr=udp%3A%2F%2Ftracker.coppersurfer.tk%3A6969&amp;tr=udp%3A%2F%2Fexodus.desync.com%3A6969","seeders":0,"leechers":0,"uploader":".BONE.","files":8,"time":1315609518,"description":"Genre:Action | Drama | Fantasy\nLanguage:English\n &lt;a href=&quot;\nhttp://www.imdb.com/title/tt1181795/&quot; rel=&quot;nofollow&quot; target=&quot;_NEW&quot;&gt;\nhttp://www.imdb.com/title/tt1181795/&lt;/a&gt;\n\nSource:VOD-SiC Thanks!\n\nFormat : AVI\nFormat/Info : Audio Video Interleave\nFile size : 1.23 GiB\nDuration : 2h 4mn\nOverall bit rate : 1 411 Kbps\n\nVideo\nID : 0\nFormat : MPEG-4 Visual\nFormat profile : Advanced Simple@L5\nFormat settings, BVOP : Yes\nFormat settings, QPel : No\nFormat settings, GMC : No warppoints\nFormat settings, Matrix : Default (H.263)\nMuxing mode : Packed bitstream\nCodec ID : XVID\nCodec ID/Hint : XviD\nDuration : 2h 4mn\nBit rate : 1 274 Kbps\nWidth : 720 pixels\nHeight : 304 pixels\nDisplay aspect ratio : 2.35:1\nFrame rate : 23.976 fps\nColor space : YUV\nChroma subsampling : 4:2:0\nBit depth : 8 bits\nScan type : Progressive\nBits/(Pixel*Frame) : 0.243\nStream size : 1.11 GiB (90%)\nWriting library : XviD 1.2.1 (UTC 2008-12-04)\n\nAudio\nID : 1\nFormat : MPEG Audio\nFormat version : Version 1\nFormat profile : Layer 3\nCodec ID : 55\nCodec ID/Hint : MP3\nDuration : 2h 4mn\nBit rate mode : Constant\nBit rate : 128 Kbps\nChannel(s) : 2 channels\nSampling rate : 44.1 KHz\nStream size : 114 MiB (9%)\nAlignment : Split accross interleaves\nInterleave, duration : 42 ms (1.00 video frame)\nInterleave, preload duration : 500 ms\n\nPlot:\nThe story of a a young man who has spent his life searching for revenge only to find himself up against a bigger challenge than he originally bargained for\n\nTRAILER:","torrent":{"xt":"urn:btih:60ad756189dbb28e44e824da135837b3b70e6ae5","amp;dn":"Bunraku+2010+VODRip+XviD+Feel-Free","amp;tr":["udp%3A%2F%2Ftracker.openbittorrent.com%3A80","udp%3A%2F%2Fopen.demonii.com%3A1337","udp%3A%2F%2Ftracker.coppersurfer.tk%3A6969","udp%3A%2F%2Fexodus.desync.com%3A6969"],"infoHash":"60ad756189dbb28e44e824da135837b3b70e6ae5","infoHashBuffer":{"type":"Buffer","data":[96,173,117,97,137,219,178,142,68,232,36,218,19,88,55,179,183,14,106,229]},"announce":[],"urlList":[]}}